<svg
  version="1.1"
  id="Layer_1"
  xmlns="http://www.w3.org/2000/svg"
  xmlns:xlink="http://www.w3.org/1999/xlink"
  x="0px"
  y="0px"
  style="width: 2em; height: 2em"
  viewBox="0 0 400 400"
  enable-background="new 0 0 400 400"
  xml:space="preserve"
>
          <path
            fill="#000000"
            opacity="1.000000"
            stroke="none"
            d="
    M271.000000,401.000000 
      C180.694733,401.000000 90.889473,401.000000 1.042102,401.000000 
      C1.042102,267.736420 1.042102,134.472794 1.042102,1.104592 
      C134.221878,1.104592 267.443848,1.104592 400.832916,1.104592 
      C400.832916,134.333160 400.832916,267.666565 400.832916,401.000000 
      C357.806183,401.000000 314.653107,401.000000 271.000000,401.000000 
    M257.686768,80.230995 
      C219.439758,80.193939 181.192764,80.156883 142.241943,80.305046 
      C134.560425,82.679001 127.402260,86.215401 122.986229,93.099739 
      C116.651840,102.974709 110.943459,113.254753 105.069237,123.420471 
      C97.880318,135.861343 90.817795,148.375153 83.659561,160.833847 
      C78.528877,169.763641 72.588860,178.317291 68.346359,187.646515 
      C62.762333,199.925751 66.500862,211.510162 73.112793,222.666046 
      C87.846321,247.524994 102.464302,272.459534 116.639900,297.638824 
      C123.056061,309.035431 130.359406,318.793488 144.853287,322.008942 
      C182.256073,321.959839 219.658859,321.910736 257.814575,321.976318 
      C266.447693,319.918854 274.138702,315.725555 278.793030,308.293060 
      C287.918030,293.721497 296.147858,278.589630 304.758514,263.695618 
      C312.965393,249.500168 320.993530,235.196625 329.457489,221.155960 
      C336.917542,208.780685 338.864929,196.475632 330.895142,183.626923 
      C327.899261,178.796997 324.906952,173.960648 322.073761,169.034760 
      C308.031403,144.620224 294.193268,120.086563 279.950867,95.789658 
      C275.171875,87.636925 268.113861,81.978989 257.686768,80.230995 
    z"
          />
          <path
            fill="#6DB33F"
            opacity="1.000000"
            stroke="none"
            d="
    M143.901428,321.872101 
      C130.359406,318.793488 123.056061,309.035431 116.639900,297.638824 
      C102.464302,272.459534 87.846321,247.524994 73.112793,222.666046 
      C66.500862,211.510162 62.762333,199.925751 68.346359,187.646515 
      C72.588860,178.317291 78.528877,169.763641 83.659561,160.833847 
      C90.817795,148.375153 97.880318,135.861343 105.069237,123.420471 
      C110.943459,113.254753 116.651840,102.974709 122.986229,93.099739 
      C127.402260,86.215401 134.560425,82.679001 142.941360,80.448669 
      C144.784119,80.733444 145.927460,80.997726 147.070816,80.997917 
      C184.108719,81.004044 221.146606,80.984718 258.184509,80.969200 
      C268.113861,81.978989 275.171875,87.636925 279.950867,95.789658 
      C294.193268,120.086563 308.031403,144.620224 322.073761,169.034760 
      C324.906952,173.960648 327.899261,178.796997 330.895142,183.626923 
      C338.864929,196.475632 336.917542,208.780685 329.457489,221.155960 
      C320.993530,235.196625 312.965393,249.500168 304.758514,263.695618 
      C296.147858,278.589630 287.918030,293.721497 278.793030,308.293060 
      C274.138702,315.725555 266.447693,319.918854 257.141418,321.610474 
      C255.645493,321.149536 254.822754,320.971741 253.999908,320.971344 
      C218.533386,320.954529 183.066833,320.944153 147.600372,320.989258 
      C146.367020,320.990814 145.134399,321.564880 143.901428,321.872101 
    M211.400314,197.365494 
      C211.602951,196.570435 211.981308,195.775681 211.982590,194.980286 
      C212.016251,174.184769 212.030899,153.389099 211.960709,132.593750 
      C211.956619,131.385147 211.210297,130.179047 210.205276,128.603058 
      C208.576172,126.340675 207.338730,123.583801 205.236526,121.918739 
      C200.845291,118.440643 193.256088,120.652138 189.446243,128.590240 
      C189.288315,129.563400 188.994110,130.536331 188.992493,131.509750 
      C188.957687,152.434769 188.939987,173.359894 188.986053,194.284836 
      C188.988815,195.540604 189.551498,196.795105 190.033340,198.760803 
      C194.859436,208.830444 202.669006,209.885727 209.065414,201.299789 
      C209.803909,200.308487 210.278809,199.120804 211.400314,197.365494 
    M168.029907,151.395309 
      C172.843704,143.296341 170.905701,135.979218 163.048599,135.441910 
      C159.494415,135.198837 155.004868,137.974030 152.098190,140.642059 
      C132.425171,158.699860 123.837814,181.044266 128.044830,207.663940 
      C131.748978,231.101669 143.758667,248.523682 164.799255,260.526367 
      C182.025330,270.353058 199.858597,271.828705 218.175217,267.571564 
      C233.212601,264.076538 245.952682,255.728653 256.007080,243.500000 
      C269.862854,226.647903 276.134491,207.777527 273.017487,185.975006 
      C270.109985,165.637970 260.337891,149.378296 244.226440,136.806061 
      C240.525986,133.918488 234.377563,134.460846 231.662247,137.877472 
      C228.654785,141.661652 229.298004,148.715332 232.362091,151.766647 
      C237.552414,156.935318 243.237701,161.897598 247.210068,167.936523 
      C254.836624,179.530655 257.525909,192.705429 254.700577,206.410736 
      C251.860092,220.189499 244.916977,231.736282 233.375656,240.155548 
      C221.465851,248.843628 207.861603,252.857285 193.479385,250.760910 
      C172.608902,247.718796 157.481094,236.196777 149.053986,216.392609 
      C139.490265,193.917328 147.388748,165.819550 168.029907,151.395309 
    z"
          />
          <path
            fill="#78A75E"
            opacity="1.000000"
            stroke="none"
            d="
    M257.935638,80.600098 
      C221.146606,80.984718 184.108719,81.004044 147.070816,80.997917 
      C145.927460,80.997726 144.784119,80.733444 143.293274,80.356056 
      C181.192764,80.156883 219.439758,80.193939 257.935638,80.600098 
    z"
          />
          <path
            fill="#B9D5A4"
            opacity="1.000000"
            stroke="none"
            d="
    M144.377350,321.940521 
      C145.134399,321.564880 146.367020,320.990814 147.600372,320.989258 
      C183.066833,320.944153 218.533386,320.954529 253.999908,320.971344 
      C254.822754,320.971741 255.645493,321.149536 256.764954,321.553101 
      C219.658859,321.910736 182.256073,321.959839 144.377350,321.940521 
    z"
          />
          <path
            fill="#000000"
            opacity="1.000000"
            stroke="none"
            d="
    M167.723557,151.608368 
      C147.388748,165.819550 139.490265,193.917328 149.053986,216.392609 
      C157.481094,236.196777 172.608902,247.718796 193.479385,250.760910 
      C207.861603,252.857285 221.465851,248.843628 233.375656,240.155548 
      C244.916977,231.736282 251.860092,220.189499 254.700577,206.410736 
      C257.525909,192.705429 254.836624,179.530655 247.210068,167.936523 
      C243.237701,161.897598 237.552414,156.935318 232.362091,151.766647 
      C229.298004,148.715332 228.654785,141.661652 231.662247,137.877472 
      C234.377563,134.460846 240.525986,133.918488 244.226440,136.806061 
      C260.337891,149.378296 270.109985,165.637970 273.017487,185.975006 
      C276.134491,207.777527 269.862854,226.647903 256.007080,243.500000 
      C245.952682,255.728653 233.212601,264.076538 218.175217,267.571564 
      C199.858597,271.828705 182.025330,270.353058 164.799255,260.526367 
      C143.758667,248.523682 131.748978,231.101669 128.044830,207.663940 
      C123.837814,181.044266 132.425171,158.699860 152.098190,140.642059 
      C155.004868,137.974030 159.494415,135.198837 163.048599,135.441910 
      C170.905701,135.979218 172.843704,143.296341 167.723557,151.608368 
    z"
          />
          <path
            fill="#000000"
            opacity="1.000000"
            stroke="none"
            d="
    M190.049805,128.000977 
      C193.256088,120.652138 200.845291,118.440643 205.236526,121.918739 
      C207.338730,123.583801 208.576172,126.340675 210.590240,129.253571 
      C210.942108,152.610764 210.909012,175.317474 210.875916,198.024170 
      C210.278809,199.120804 209.803909,200.308487 209.065414,201.299789 
      C202.669006,209.885727 194.859436,208.830444 189.999252,197.930450 
      C189.993378,174.067062 190.021591,151.034012 190.049805,128.000977 
    z"
          />
          <path
            fill="#B9D7A4"
            opacity="1.000000"
            stroke="none"
            d="
    M189.748016,128.295609 
      C190.021591,151.034012 189.993378,174.067062 189.909393,197.575150 
      C189.551498,196.795105 188.988815,195.540604 188.986053,194.284836 
      C188.939987,173.359894 188.957687,152.434769 188.992493,131.509750 
      C188.994110,130.536331 189.288315,129.563400 189.748016,128.295609 
    z"
          />
          <path
            fill="#9CC781"
            opacity="1.000000"
            stroke="none"
            d="
    M211.138123,197.694824 
      C210.909012,175.317474 210.942108,152.610764 210.892303,129.437927 
      C211.210297,130.179047 211.956619,131.385147 211.960709,132.593750 
      C212.030899,153.389099 212.016251,174.184769 211.982590,194.980286 
      C211.981308,195.775681 211.602951,196.570435 211.138123,197.694824 
    z"
          />
        </svg>